<?xml version="1.0" encoding="UTF-8"?>
<svg id="Layer_2" data-name="Layer 2" xmlns="http://www.w3.org/2000/svg" viewBox="0 0 469 655.82">
  <defs>
    <style>
      .cls-1 {
        fill: none;
        stroke: #fff;
        stroke-miterlimit: 10;
        stroke-width: 7.82px;
      }
    </style>
  </defs>
  <g id="Layer_1-2" data-name="Layer 1">
    <g>
      <path class="cls-1" d="m236.23,651.77l228.27-122.55c.52-.3.73-.96.49-1.53L236.84,4.33c-.24-.55-.99-.55-1.23,0L4.01,527.69c-.24.57-.03,1.23.49,1.53l230.64,122.55c.34.19.75.19,1.09,0Z"/>
      <path class="cls-1" d="m235.76,272.12l-78.37,92.18s0,.07.03.07h59.6"/>
      <path class="cls-1" d="m238.9,532.4h129.94c.07,0,.11-.08.07-.14l-133.09-195.93s-.09-.05-.12,0l-133.09,195.93c-.04.06,0,.14.07.14h129.94"/>
      <path class="cls-1" d="m217.03,364.38h37.47s59.6,0,59.6,0c.04,0,.06-.04.03-.07l-78.37-92.18"/>
      <path class="cls-1" d="m235.76,272.12h26.91c.08,0,.14.07.13.15l-26.98,293.73c-.02.2.21.31.34.16l31.24-31.49-31.63-403.06s-.02-.01-.02,0l-31.62,403.06,31.23,31.49c.13.14.36.03.34-.16l-26.98-293.73c0-.08.05-.15.13-.15h26.91"/>
    </g>
  </g>
</svg>