<?xml version="1.0" encoding="UTF-8"?>
<svg id="Layer_2" data-name="Layer 2" xmlns="http://www.w3.org/2000/svg" viewBox="0 0 223.5 297.57">
  <defs>
    <style>
      .cls-1, .cls-2 {
        fill: none;
        stroke: #fff;
        stroke-miterlimit: 10;
        stroke-width: 3px;
      }

      .cls-2 {
        fill-rule: evenodd;
      }
    </style>
  </defs>
  <g id="Layer_2-2" data-name="Layer 2">
    <g>
      <g>
        <g>
          <polygon class="cls-2" points="120.57 117.97 111.75 93.21 102.93 117.97 103.91 81.47 111.75 57.8 119.59 81.47 120.57 117.97"/>
          <path class="cls-2" d="m120.57,117.97h0v.02l.32,12.13h3.16v-3.7h7.07l9.07,23.23,11.91,30.5h0s.01.02.01.02l26.47,67.82-8.37,14.23-28.86-36.55-1.52,6.64,26.12,33.31-5.55,6.09-22.96-5-.5-1.09h-.01l-3.41-7.4-2.14,9.83-8.2.25-4.73-10.75s-.09-.04-.09.01l-1.35,10.73h-5.26"/>
          <path class="cls-2" d="m120.57,117.97h0v.02l-8.82,25.63,10.77,29.03h0s11.07,29.87,11.07,29.87c.01.01,0,.02-.01.03l-7.23,4.72,15,18.4-7.83,32.55"/>
          <line class="cls-1" x1="111.75" y1="257.38" x2="118.38" y2="257.38"/>
          <path class="cls-2" d="m170.21,262.21l-17.92-81.21c-.05-.21-.34-.21-.39,0l-10.54,44.67-22.97,31.71"/>
          <path class="cls-2" d="m152.1,180.15h0s-18.45,22.32-18.45,22.32c-.02.02-.05,0-.04-.02l6.57-52.73s-.02-.03-.04-.01l-17.63,22.94h0s-10.77,14.02-10.77,14.02l14.6,20.6"/>
          <line class="cls-1" x1="111.75" y1="207.27" x2="126.35" y2="207.27"/>
          <polyline class="cls-2" points="122.52 172.66 122.52 172.65 131.12 126.42"/>
          <line class="cls-1" x1="165.95" y1="265.61" x2="136.93" y2="265.61"/>
        </g>
        <g>
          <path class="cls-2" d="m111.75,268.3h-5.26l-1.35-10.73s-.07-.06-.09-.01l-4.73,10.75-8.2-.25-2.14-9.83-3.41,7.4h-.01l-.5,1.09-22.96,5-5.55-6.09,26.12-33.31-1.52-6.64-28.86,36.55-8.37-14.23,26.47-67.82h.01v-.02l11.91-30.5,9.07-23.23h7.07v3.7h3.16l.32-12.13h0v-.02"/>
          <path class="cls-2" d="m89.98,258.22l-7.83-32.55,15-18.4-7.23-4.72s-.02-.02-.01-.03l11.07-29.86h0s10.77-29.04,10.77-29.04l-8.82-25.63h0v-.02"/>
          <line class="cls-1" x1="111.75" y1="257.38" x2="105.12" y2="257.38"/>
          <path class="cls-2" d="m53.29,262.21l17.92-81.21c.05-.21.34-.21.39,0l10.54,44.67,22.97,31.71"/>
          <path class="cls-2" d="m97.15,207.27l14.6-20.6-10.77-14.01h0s-17.63-22.95-17.63-22.95c-.01-.02-.04,0-.04.01l6.57,52.73s-.03.04-.04.02l-18.45-22.31h0"/>
          <line class="cls-1" x1="111.75" y1="207.27" x2="97.15" y2="207.27"/>
          <polyline class="cls-2" points="92.38 126.42 100.98 172.65 100.98 172.66"/>
          <line class="cls-1" x1="57.55" y1="265.61" x2="86.57" y2="265.61"/>
        </g>
      </g>
      <polygon class="cls-2" points="111.75 3.62 1.82 245.19 57.75 296.07 111.75 296.07 165.75 296.07 221.68 245.19 111.75 3.62"/>
    </g>
  </g>
</svg>