<?xml version="1.0" encoding="utf-8"?>
<!-- Generator: Adobe Illustrator 28.0.0, SVG Export Plug-In . SVG Version: 6.00 Build 0)  -->
<svg version="1.1" id="Layer_2_00000065763956606026932090000002999089992977406648_"
	 xmlns="http://www.w3.org/2000/svg" xmlns:xlink="http://www.w3.org/1999/xlink" x="0px" y="0px" viewBox="0 0 436 627.9"
	 style="enable-background:new 0 0 436 627.9;" xml:space="preserve">
<style type="text/css">
	.st0{fill:none;stroke:#FFFFFF;stroke-width:3.96;stroke-linecap:round;stroke-linejoin:round;}
	.st1{fill:none;stroke:#FFFFFF;stroke-width:4.03;stroke-linecap:round;stroke-linejoin:round;}
</style>
<g id="Layer_1-2">
	<g>
		<g>
			<path class="st0" d="M218,86.7l-14.1,136.9l-64.5,86.8v-10.2l-72.7,100l75.7-11.1h0l51.2-18.5l1.5,39.7h12.2l10.8,77.5v25.6"/>
			<polyline class="st0" points="201.9,228.9 182,218 193.5,370.5 218,365.7 218,487.7 155.8,495.9 210.8,435.4 			"/>
			<path class="st0" d="M203.9,223.6l-61.4,164.9c0,0.1-0.2,0.1-0.2,0l-3-78.1"/>
			<polyline class="st0" points="207.2,410.2 195,410.2 200.3,369.2 207.2,410.2 			"/>
			<polyline class="st0" points="195,225.1 218,238.8 200.3,369.2 214.5,366.4 203.9,223.6 227.7,180.7 			"/>
			<line class="st0" x1="232.3" y1="223.6" x2="208.6" y2="180.7"/>
			<path class="st0" d="M218,86.7l14.1,136.9l64.5,86.8v-10.2l72.7,100L293.7,389h0l-51.2-18.5l-1.5,39.7h-12.2L218,487.7v25.6"/>
			<polyline class="st0" points="234.1,228.9 254,218 242.5,370.5 218,365.7 218,487.7 280.2,495.9 225.3,435.4 			"/>
			<path class="st0" d="M232.1,223.6l61.4,164.9c0,0.1,0.2,0.1,0.2,0l3-78.1"/>
			<polyline class="st0" points="228.8,410.2 241,410.2 235.7,369.2 228.8,410.2 			"/>
			<polyline class="st0" points="232.1,223.6 221.5,366.4 235.7,369.2 218,238.8 241,225.1 			"/>
		</g>
		<polygon class="st1" points="218,2 434,405.8 218,625.9 2,405.8 		"/>
	</g>
</g>
</svg>
